<svg xmlns="http://www.w3.org/2000/svg" xmlns:xlink="http://www.w3.org/1999/xlink" width="450" zoomAndPan="magnify" viewBox="0 0 337.5 337.500003" height="450" preserveAspectRatio="xMidYMid meet" version="1.0"><defs><clipPath id="535251741c"><path d="M 40 127 L 99 127 L 99 156 L 40 156 Z M 40 127 " clip-rule="nonzero"/></clipPath><clipPath id="07e8483e6e"><path d="M 40.984375 142.824219 L 95.332031 127.382812 L 98.800781 139.582031 L 44.453125 155.027344 Z M 40.984375 142.824219 " clip-rule="nonzero"/></clipPath><clipPath id="08fe4ed604"><path d="M 0.980469 0.25 L 58.972656 0.25 L 58.972656 28.050781 L 0.980469 28.050781 Z M 0.980469 0.25 " clip-rule="nonzero"/></clipPath><clipPath id="b9ecaed144"><path d="M 0.984375 15.824219 L 55.332031 0.382812 L 58.800781 12.582031 L 4.453125 28.027344 Z M 0.984375 15.824219 " clip-rule="nonzero"/></clipPath><clipPath id="098e653815"><rect x="0" width="59" y="0" height="29"/></clipPath><clipPath id="d8cddc4f3b"><path d="M 254 89 L 271 89 L 271 106 L 254 106 Z M 254 89 " clip-rule="nonzero"/></clipPath><clipPath id="f0b0f6b4a2"><path d="M 251.035156 98.191406 L 259.382812 85.089844 L 270.273438 92.027344 L 261.925781 105.128906 Z M 251.035156 98.191406 " clip-rule="nonzero"/></clipPath><clipPath id="e7108b699c"><path d="M 270.246094 92.066406 C 264.3125 88.289062 257.460938 88.105469 255.195312 91.664062 C 252.929688 95.21875 255.996094 101.351562 261.925781 105.128906 Z M 270.246094 92.066406 " clip-rule="nonzero"/></clipPath><clipPath id="5aa3982ee2"><path d="M 0 0 L 16.320312 0 L 16.320312 16.203125 L 0 16.203125 Z M 0 0 " clip-rule="nonzero"/></clipPath><clipPath id="7c73787403"><path d="M -2.964844 9.191406 L 5.382812 -3.910156 L 16.273438 3.027344 L 7.925781 16.128906 Z M -2.964844 9.191406 " clip-rule="nonzero"/></clipPath><clipPath id="dd59b14015"><path d="M 16.246094 3.066406 C 10.3125 -0.710938 3.460938 -0.894531 1.195312 2.664062 C -1.070312 6.21875 1.996094 12.351562 7.925781 16.128906 Z M 16.246094 3.066406 " clip-rule="nonzero"/></clipPath><clipPath id="7dd50636e2"><rect x="0" width="17" y="0" height="17"/></clipPath><clipPath id="0c1d283945"><path d="M 29 127 L 107 127 L 107 255 L 29 255 Z M 29 127 " clip-rule="nonzero"/></clipPath><clipPath id="1c05d29508"><path d="M 29.820312 248.628906 L 94.425781 127.320312 L 106.3125 133.652344 L 41.707031 254.960938 Z M 29.820312 248.628906 " clip-rule="nonzero"/></clipPath><clipPath id="89b92fcd95"><path d="M 0.714844 0.25 L 77.402344 0.25 L 77.402344 127.980469 L 0.714844 127.980469 Z M 0.714844 0.25 " clip-rule="nonzero"/></clipPath><clipPath id="716a5e0d95"><path d="M 0.820312 121.628906 L 65.425781 0.320312 L 77.3125 6.652344 L 12.707031 127.960938 Z M 0.820312 121.628906 " clip-rule="nonzero"/></clipPath><clipPath id="451a53e13c"><rect x="0" width="78" y="0" height="128"/></clipPath><clipPath id="15f80f0f61"><path d="M 70 170 L 104 170 L 104 244 L 70 244 Z M 70 170 " clip-rule="nonzero"/></clipPath><clipPath id="9b0242b62e"><path d="M 90.949219 243.796875 L 70.992188 174.183594 L 83.9375 170.472656 L 103.898438 240.085938 Z M 90.949219 243.796875 " clip-rule="nonzero"/></clipPath><clipPath id="15e4697fe0"><path d="M 0.933594 0.386719 L 34 0.386719 L 34 73.957031 L 0.933594 73.957031 Z M 0.933594 0.386719 " clip-rule="nonzero"/></clipPath><clipPath id="06c1d22094"><path d="M 20.949219 73.796875 L 0.992188 4.183594 L 13.9375 0.472656 L 33.898438 70.085938 Z M 20.949219 73.796875 " clip-rule="nonzero"/></clipPath><clipPath id="974b7396f6"><rect x="0" width="34" y="0" height="74"/></clipPath><clipPath id="600d2f0b1e"><path d="M 120 118 L 178 118 L 178 147 L 120 147 Z M 120 118 " clip-rule="nonzero"/></clipPath><clipPath id="0353420538"><path d="M 120.5625 133.863281 L 174.246094 118.3125 L 177.992188 131.246094 L 124.3125 146.800781 Z M 120.5625 133.863281 " clip-rule="nonzero"/></clipPath><clipPath id="8a6dfa4830"><path d="M 0.542969 0.144531 L 58 0.144531 L 58 28.902344 L 0.542969 28.902344 Z M 0.542969 0.144531 " clip-rule="nonzero"/></clipPath><clipPath id="0667e7bb52"><path d="M 0.5625 15.863281 L 54.246094 0.3125 L 57.992188 13.246094 L 4.3125 28.800781 Z M 0.5625 15.863281 " clip-rule="nonzero"/></clipPath><clipPath id="dc70e77632"><rect x="0" width="58" y="0" height="29"/></clipPath><clipPath id="e9be1d7398"><path d="M 117 123 L 179 123 L 179 234 L 117 234 Z M 117 123 " clip-rule="nonzero"/></clipPath><clipPath id="c0e4258e81"><path d="M 117.347656 227.21875 L 166.550781 123.722656 L 178.90625 129.597656 L 129.703125 233.09375 Z M 117.347656 227.21875 " clip-rule="nonzero"/></clipPath><clipPath id="d39b6e5f9e"><path d="M 0.1875 0.65625 L 62 0.65625 L 62 110.175781 L 0.1875 110.175781 Z M 0.1875 0.65625 " clip-rule="nonzero"/></clipPath><clipPath id="bc78f2fbfc"><path d="M 0.347656 104.21875 L 49.550781 0.722656 L 61.90625 6.597656 L 12.703125 110.09375 Z M 0.347656 104.21875 " clip-rule="nonzero"/></clipPath><clipPath id="3319df3435"><rect x="0" width="62" y="0" height="111"/></clipPath><clipPath id="b1ee5d8817"><path d="M 104 121 L 136 121 L 136 173 L 104 173 Z M 104 121 " clip-rule="nonzero"/></clipPath><clipPath id="d032f29d15"><path d="M 104.441406 167.292969 L 122.875 121.28125 L 135.378906 126.289062 L 116.941406 172.300781 Z M 104.441406 167.292969 " clip-rule="nonzero"/></clipPath><clipPath id="c7a11e4322"><path d="M 0.246094 0.261719 L 31.398438 0.261719 L 31.398438 51.304688 L 0.246094 51.304688 Z M 0.246094 0.261719 " clip-rule="nonzero"/></clipPath><clipPath id="586edd13e1"><path d="M 0.441406 46.292969 L 18.875 0.28125 L 31.378906 5.289062 L 12.941406 51.300781 Z M 0.441406 46.292969 " clip-rule="nonzero"/></clipPath><clipPath id="c47914c533"><rect x="0" width="32" y="0" height="52"/></clipPath><clipPath id="e3da0aa31d"><path d="M 237 91 L 267 91 L 267 127 L 237 127 Z M 237 91 " clip-rule="nonzero"/></clipPath><clipPath id="ba12c34187"><path d="M 237.488281 119.144531 L 255.320312 91.121094 L 266.683594 98.351562 L 248.851562 126.375 Z M 237.488281 119.144531 " clip-rule="nonzero"/></clipPath><clipPath id="24a39eb5ea"><path d="M 0.488281 0.0664062 L 29.726562 0.0664062 L 29.726562 35.53125 L 0.488281 35.53125 Z M 0.488281 0.0664062 " clip-rule="nonzero"/></clipPath><clipPath id="27f2749d6c"><path d="M 0.488281 28.144531 L 18.320312 0.121094 L 29.683594 7.351562 L 11.851562 35.375 Z M 0.488281 28.144531 " clip-rule="nonzero"/></clipPath><clipPath id="fa68b052df"><rect x="0" width="30" y="0" height="36"/></clipPath><clipPath id="f1ea37f8a5"><path d="M 202 112 L 277 112 L 277 140 L 202 140 Z M 202 112 " clip-rule="nonzero"/></clipPath><clipPath id="c5310f735f"><path d="M 202.097656 126.609375 L 273.875 112.035156 L 276.554688 125.234375 L 204.777344 139.808594 Z M 202.097656 126.609375 " clip-rule="nonzero"/></clipPath><clipPath id="13313d3e9f"><path d="M 0.0195312 0 L 74.789062 0 L 74.789062 27.953125 L 0.0195312 27.953125 Z M 0.0195312 0 " clip-rule="nonzero"/></clipPath><clipPath id="6969a464e7"><path d="M 0.0976562 14.609375 L 71.875 0.0351562 L 74.554688 13.234375 L 2.777344 27.808594 Z M 0.0976562 14.609375 " clip-rule="nonzero"/></clipPath><clipPath id="4b3db30f2c"><rect x="0" width="75" y="0" height="28"/></clipPath><clipPath id="ce9b1542f8"><path d="M 190 134 L 208 134 L 208 188 L 190 188 Z M 190 134 " clip-rule="nonzero"/></clipPath><clipPath id="0a28f8036a"><path d="M 190.816406 187.070312 L 193.589844 134.394531 L 207.039062 135.101562 L 204.265625 187.777344 Z M 190.816406 187.070312 " clip-rule="nonzero"/></clipPath><clipPath id="4391ee7d4c"><path d="M 0.757812 0.203125 L 17.054688 0.203125 L 17.054688 53.882812 L 0.757812 53.882812 Z M 0.757812 0.203125 " clip-rule="nonzero"/></clipPath><clipPath id="07d7518b2d"><path d="M 0.816406 53.070312 L 3.589844 0.394531 L 17.039062 1.101562 L 14.265625 53.777344 Z M 0.816406 53.070312 " clip-rule="nonzero"/></clipPath><clipPath id="273a87dda1"><rect x="0" width="18" y="0" height="54"/></clipPath><clipPath id="b1900a9a93"><path d="M 263 115 L 280 115 L 280 174 L 263 174 Z M 263 115 " clip-rule="nonzero"/></clipPath><clipPath id="a134e3c449"><path d="M 263.039062 172.714844 L 266.039062 115.773438 L 279.488281 116.484375 L 276.488281 173.425781 Z M 263.039062 172.714844 " clip-rule="nonzero"/></clipPath><clipPath id="89a1f85e1e"><path d="M 0 0.75 L 16.664062 0.75 L 16.664062 58.503906 L 0 58.503906 Z M 0 0.75 " clip-rule="nonzero"/></clipPath><clipPath id="b02c0a537f"><path d="M 0.0390625 57.714844 L 3.039062 0.773438 L 16.488281 1.484375 L 13.488281 58.425781 Z M 0.0390625 57.714844 " clip-rule="nonzero"/></clipPath><clipPath id="4d1bf8bcee"><rect x="0" width="17" y="0" height="59"/></clipPath><clipPath id="5ec8827766"><path d="M 199 136 L 276 136 L 276 165 L 199 165 Z M 199 136 " clip-rule="nonzero"/></clipPath><clipPath id="144e212ecd"><path d="M 199.121094 151.613281 L 272.347656 136.746094 L 275.027344 149.945312 L 201.800781 164.8125 Z M 199.121094 151.613281 " clip-rule="nonzero"/></clipPath><clipPath id="ef2eb9ba79"><path d="M 0 0.597656 L 76.113281 0.597656 L 76.113281 28.875 L 0 28.875 Z M 0 0.597656 " clip-rule="nonzero"/></clipPath><clipPath id="a031723605"><path d="M 0.121094 15.613281 L 73.347656 0.746094 L 76.027344 13.945312 L 2.800781 28.8125 Z M 0.121094 15.613281 " clip-rule="nonzero"/></clipPath><clipPath id="e705adc006"><rect x="0" width="77" y="0" height="29"/></clipPath><clipPath id="69ad12c9bc"><path d="M 199 160 L 277 160 L 277 190 L 199 190 Z M 199 160 " clip-rule="nonzero"/></clipPath><clipPath id="fa35185ece"><path d="M 199.121094 176.023438 L 273.875 160.84375 L 276.554688 174.042969 L 201.800781 189.21875 Z M 199.121094 176.023438 " clip-rule="nonzero"/></clipPath><clipPath id="b88703a23b"><path d="M 0 0.800781 L 77.789062 0.800781 L 77.789062 29.320312 L 0 29.320312 Z M 0 0.800781 " clip-rule="nonzero"/></clipPath><clipPath id="202a0067fd"><path d="M 0.121094 16.023438 L 74.875 0.84375 L 77.554688 14.042969 L 2.800781 29.21875 Z M 0.121094 16.023438 " clip-rule="nonzero"/></clipPath><clipPath id="f7d4d44280"><rect x="0" width="78" y="0" height="30"/></clipPath><clipPath id="ad6243f973"><path d="M 12 178 L 304 178 L 304 266 L 12 266 Z M 12 178 " clip-rule="nonzero"/></clipPath><clipPath id="332a4330c9"><path d="M 12.5 252.25 L 299.953125 178.417969 L 303.300781 191.460938 L 15.851562 265.292969 Z M 12.5 252.25 " clip-rule="nonzero"/></clipPath><clipPath id="7d1cec628f"><path d="M 0.460938 0.296875 L 291.390625 0.296875 L 291.390625 87.527344 L 0.460938 87.527344 Z M 0.460938 0.296875 " clip-rule="nonzero"/></clipPath><clipPath id="46a2ae38b5"><path d="M 0.5 74.25 L 287.953125 0.417969 L 291.300781 13.460938 L 3.851562 87.292969 Z M 0.5 74.25 " clip-rule="nonzero"/></clipPath><clipPath id="c0913fa56b"><rect x="0" width="292" y="0" height="88"/></clipPath><clipPath id="dbb4b4a770"><path d="M 221 127 L 242 127 L 242 255 L 221 255 Z M 221 127 " clip-rule="nonzero"/></clipPath><clipPath id="4accb0bed4"><path d="M 221.859375 254.25 L 228.542969 127.371094 L 241.992188 128.082031 L 235.308594 254.957031 Z M 221.859375 254.25 " clip-rule="nonzero"/></clipPath><clipPath id="2dc5d67caa"><path d="M 0.671875 0.25 L 21 0.25 L 21 127.980469 L 0.671875 127.980469 Z M 0.671875 0.25 " clip-rule="nonzero"/></clipPath><clipPath id="531f59d787"><path d="M 0.859375 127.25 L 7.542969 0.371094 L 20.992188 1.082031 L 14.308594 127.957031 Z M 0.859375 127.25 " clip-rule="nonzero"/></clipPath><clipPath id="9499fafe54"><rect x="0" width="21" y="0" height="128"/></clipPath><clipPath id="18c5638bf4"><path d="M 34 142 L 54 142 L 54 158 L 34 158 Z M 34 142 " clip-rule="nonzero"/></clipPath><clipPath id="71f1b96166"><path d="M 31.320312 145.425781 L 50.214844 140.179688 L 53.667969 152.617188 L 34.769531 157.859375 Z M 31.320312 145.425781 " clip-rule="nonzero"/></clipPath><clipPath id="241f5dc301"><path d="M 53.636719 152.625 C 51.757812 145.851562 45.890625 141.378906 40.753906 142.804688 C 35.613281 144.230469 32.890625 151.085938 34.769531 157.859375 Z M 53.636719 152.625 " clip-rule="nonzero"/></clipPath><clipPath id="cf93369162"><path d="M 0 0 L 19.679688 0 L 19.679688 15.925781 L 0 15.925781 Z M 0 0 " clip-rule="nonzero"/></clipPath><clipPath id="ec5cb90f8c"><path d="M -2.679688 3.425781 L 16.214844 -1.820312 L 19.667969 10.617188 L 0.769531 15.859375 Z M -2.679688 3.425781 " clip-rule="nonzero"/></clipPath><clipPath id="0682978d50"><path d="M 19.636719 10.625 C 17.757812 3.851562 11.890625 -0.621094 6.753906 0.804688 C 1.613281 2.230469 -1.109375 9.085938 0.769531 15.859375 Z M 19.636719 10.625 " clip-rule="nonzero"/></clipPath><clipPath id="942f91aa0d"><rect x="0" width="20" y="0" height="16"/></clipPath><clipPath id="8cc3977806"><path d="M 76 122 L 113 122 L 113 146 L 76 146 Z M 76 122 " clip-rule="nonzero"/></clipPath><clipPath id="7d5be4526a"><path d="M 76.464844 132.691406 L 89.203125 109.25 L 112.828125 122.085938 L 100.089844 145.527344 Z M 76.464844 132.691406 " clip-rule="nonzero"/></clipPath><clipPath id="79cfb5637a"><path d="M 112.777344 122.058594 L 100.042969 145.5 L 76.464844 132.691406 Z M 112.777344 122.058594 " clip-rule="nonzero"/></clipPath><clipPath id="9c333be808"><path d="M 0.445312 0 L 36.871094 0 L 36.871094 23.703125 L 0.445312 23.703125 Z M 0.445312 0 " clip-rule="nonzero"/></clipPath><clipPath id="877e03c071"><path d="M 0.464844 10.691406 L 13.203125 -12.75 L 36.828125 0.0859375 L 24.089844 23.527344 Z M 0.464844 10.691406 " clip-rule="nonzero"/></clipPath><clipPath id="c80107df1e"><path d="M 36.777344 0.0585938 L 24.042969 23.5 L 0.464844 10.691406 Z M 36.777344 0.0585938 " clip-rule="nonzero"/></clipPath><clipPath id="44a5dfc8fe"><rect x="0" width="37" y="0" height="24"/></clipPath><clipPath id="82cf64db74"><path d="M 100 166 L 118 166 L 118 179 L 100 179 Z M 100 166 " clip-rule="nonzero"/></clipPath><clipPath id="9d03b69762"><path d="M 117.347656 171.933594 L 112.582031 183.5625 L 100.042969 178.425781 L 104.808594 166.796875 Z M 117.347656 171.933594 " clip-rule="nonzero"/></clipPath><clipPath id="2ac7b5652a"><path d="M 100.074219 178.441406 L 104.839844 166.808594 L 117.347656 171.933594 Z M 100.074219 178.441406 " clip-rule="nonzero"/></clipPath><clipPath id="feee4a40ba"><path d="M 0 0.792969 L 17.425781 0.792969 L 17.425781 12.535156 L 0 12.535156 Z M 0 0.792969 " clip-rule="nonzero"/></clipPath><clipPath id="34bbe4e209"><path d="M 17.347656 5.933594 L 12.582031 17.5625 L 0.0429688 12.425781 L 4.808594 0.796875 Z M 17.347656 5.933594 " clip-rule="nonzero"/></clipPath><clipPath id="3a8eec4618"><path d="M 0.0742188 12.441406 L 4.839844 0.808594 L 17.347656 5.933594 Z M 0.0742188 12.441406 " clip-rule="nonzero"/></clipPath><clipPath id="dfc55b8588"><rect x="0" width="18" y="0" height="13"/></clipPath><clipPath id="b4af0fd0c0"><path d="M 122 115 L 140 115 L 140 136 L 122 136 Z M 122 115 " clip-rule="nonzero"/></clipPath><clipPath id="e00a0773c9"><path d="M 119.511719 130.242188 L 126.714844 112.003906 L 139.796875 117.171875 L 132.589844 135.410156 Z M 119.511719 130.242188 " clip-rule="nonzero"/></clipPath><clipPath id="57ad4e583c"><path d="M 139.785156 117.199219 C 132.660156 114.386719 125.066406 116.179688 123.109375 121.136719 C 121.148438 126.097656 125.46875 132.597656 132.589844 135.410156 Z M 139.785156 117.199219 " clip-rule="nonzero"/></clipPath><clipPath id="7a5ac24e8d"><path d="M 0 0 L 17.953125 0 L 17.953125 20.640625 L 0 20.640625 Z M 0 0 " clip-rule="nonzero"/></clipPath><clipPath id="f4dd352d5e"><path d="M -2.488281 15.242188 L 4.714844 -2.996094 L 17.796875 2.171875 L 10.589844 20.410156 Z M -2.488281 15.242188 " clip-rule="nonzero"/></clipPath><clipPath id="76164638f2"><path d="M 17.785156 2.199219 C 10.660156 -0.613281 3.066406 1.179688 1.109375 6.136719 C -0.851562 11.097656 3.46875 17.597656 10.589844 20.410156 Z M 17.785156 2.199219 " clip-rule="nonzero"/></clipPath><clipPath id="ad68104eb4"><rect x="0" width="18" y="0" height="21"/></clipPath><clipPath id="9c633a65c8"><path d="M 150 114 L 187 114 L 187 138 L 150 138 Z M 150 114 " clip-rule="nonzero"/></clipPath><clipPath id="2f09c5b2cc"><path d="M 150.660156 125.234375 L 161.335938 102.757812 L 186.441406 114.683594 L 175.769531 137.15625 Z M 150.660156 125.234375 " clip-rule="nonzero"/></clipPath><clipPath id="0ea00cbed3"><path d="M 186.402344 114.664062 L 175.730469 137.136719 L 150.660156 125.234375 Z M 186.402344 114.664062 " clip-rule="nonzero"/></clipPath><clipPath id="b80792b91f"><path d="M 0.496094 0.550781 L 36.445312 0.550781 L 36.445312 23.316406 L 0.496094 23.316406 Z M 0.496094 0.550781 " clip-rule="nonzero"/></clipPath><clipPath id="4ac02d9279"><path d="M 0.660156 11.234375 L 11.335938 -11.242188 L 36.441406 0.683594 L 25.769531 23.15625 Z M 0.660156 11.234375 " clip-rule="nonzero"/></clipPath><clipPath id="b919a7d6d4"><path d="M 36.402344 0.664062 L 25.730469 23.136719 L 0.660156 11.234375 Z M 36.402344 0.664062 " clip-rule="nonzero"/></clipPath><clipPath id="42ee9c5acd"><rect x="0" width="37" y="0" height="24"/></clipPath><clipPath id="a4e2a5ddb5"><path d="M 163 99 L 179 99 L 179 118 L 163 118 Z M 163 99 " clip-rule="nonzero"/></clipPath><clipPath id="ff886e7615"><path d="M 161.140625 113.777344 L 165.785156 96.484375 L 178.921875 100.015625 L 174.273438 117.308594 Z M 161.140625 113.777344 " clip-rule="nonzero"/></clipPath><clipPath id="154a21ea18"><path d="M 178.910156 100.0625 C 171.753906 98.140625 164.71875 100.457031 163.457031 105.15625 C 162.195312 109.851562 167.121094 115.386719 174.273438 117.308594 Z M 178.910156 100.0625 " clip-rule="nonzero"/></clipPath><clipPath id="18333271a0"><path d="M 0 0 L 16 0 L 16 18.425781 L 0 18.425781 Z M 0 0 " clip-rule="nonzero"/></clipPath><clipPath id="e168148006"><path d="M -1.859375 14.777344 L 2.785156 -2.515625 L 15.921875 1.015625 L 11.273438 18.308594 Z M -1.859375 14.777344 " clip-rule="nonzero"/></clipPath><clipPath id="3ee94a78f6"><path d="M 15.910156 1.0625 C 8.753906 -0.859375 1.71875 1.457031 0.457031 6.15625 C -0.804688 10.851562 4.121094 16.386719 11.273438 18.308594 Z M 15.910156 1.0625 " clip-rule="nonzero"/></clipPath><clipPath id="540210d95e"><rect x="0" width="16" y="0" height="19"/></clipPath><clipPath id="7e44fea725"><path d="M 159 113 L 175 113 L 175 121 L 159 121 Z M 159 113 " clip-rule="nonzero"/></clipPath><clipPath id="4b4a7569b4"><path d="M 174.527344 117.019531 L 172.464844 124.542969 L 159.476562 120.984375 L 161.539062 113.460938 Z M 174.527344 117.019531 " clip-rule="nonzero"/></clipPath><clipPath id="83ca5e8667"><path d="M 159.492188 120.988281 L 161.554688 113.46875 L 174.527344 117.019531 Z M 159.492188 120.988281 " clip-rule="nonzero"/></clipPath><clipPath id="e06aefc48c"><path d="M 0.363281 0.351562 L 15.703125 0.351562 L 15.703125 8 L 0.363281 8 Z M 0.363281 0.351562 " clip-rule="nonzero"/></clipPath><clipPath id="70206fa72e"><path d="M 15.527344 4.019531 L 13.464844 11.542969 L 0.476562 7.984375 L 2.539062 0.460938 Z M 15.527344 4.019531 " clip-rule="nonzero"/></clipPath><clipPath id="f81f0a9555"><path d="M 0.492188 7.988281 L 2.554688 0.46875 L 15.527344 4.019531 Z M 0.492188 7.988281 " clip-rule="nonzero"/></clipPath><clipPath id="d797bfda1c"><rect x="0" width="16" y="0" height="8"/></clipPath><clipPath id="cdc7c1dc35"><path d="M 161 104 L 176 104 L 176 118 L 161 118 Z M 161 104 " clip-rule="nonzero"/></clipPath><clipPath id="998ebef2c8"><path d="M 161.132812 113.910156 L 163.730469 104.542969 L 175.988281 107.9375 L 173.390625 117.304688 Z M 161.132812 113.910156 " clip-rule="nonzero"/></clipPath><clipPath id="7053c68aed"><path d="M 0.0429688 0.484375 L 15 0.484375 L 15 13.425781 L 0.0429688 13.425781 Z M 0.0429688 0.484375 " clip-rule="nonzero"/></clipPath><clipPath id="34ab34276d"><path d="M 0.132812 9.910156 L 2.730469 0.542969 L 14.988281 3.9375 L 12.390625 13.304688 Z M 0.132812 9.910156 " clip-rule="nonzero"/></clipPath><clipPath id="e17318f144"><rect x="0" width="15" y="0" height="14"/></clipPath><clipPath id="66252fc02e"><path d="M 180 94 L 197 94 L 197 113 L 180 113 Z M 180 94 " clip-rule="nonzero"/></clipPath><clipPath id="604ca8f525"><path d="M 178.335938 109.1875 L 182.980469 91.894531 L 196.117188 95.425781 L 191.472656 112.71875 Z M 178.335938 109.1875 " clip-rule="nonzero"/></clipPath><clipPath id="34ed141d61"><path d="M 196.105469 95.472656 C 188.949219 93.550781 181.914062 95.867188 180.652344 100.566406 C 179.390625 105.261719 184.316406 110.796875 191.472656 112.71875 Z M 196.105469 95.472656 " clip-rule="nonzero"/></clipPath><clipPath id="bef88a19d8"><path d="M 0 0 L 16.269531 0 L 16.269531 18.871094 L 0 18.871094 Z M 0 0 " clip-rule="nonzero"/></clipPath><clipPath id="e070d10d41"><path d="M -1.664062 15.1875 L 2.980469 -2.105469 L 16.117188 1.425781 L 11.472656 18.71875 Z M -1.664062 15.1875 " clip-rule="nonzero"/></clipPath><clipPath id="f80e34485b"><path d="M 16.105469 1.472656 C 8.949219 -0.449219 1.914062 1.867188 0.652344 6.566406 C -0.609375 11.261719 4.316406 16.796875 11.472656 18.71875 Z M 16.105469 1.472656 " clip-rule="nonzero"/></clipPath><clipPath id="7c23c1558d"><rect x="0" width="17" y="0" height="19"/></clipPath><clipPath id="3478c73ea2"><path d="M 176 108 L 192 108 L 192 117 L 176 117 Z M 176 108 " clip-rule="nonzero"/></clipPath><clipPath id="ae1089820b"><path d="M 191.722656 112.429688 L 189.664062 119.953125 L 176.675781 116.394531 L 178.734375 108.871094 Z M 191.722656 112.429688 " clip-rule="nonzero"/></clipPath><clipPath id="a372d7106d"><path d="M 176.691406 116.398438 L 178.75 108.875 L 191.722656 112.429688 Z M 176.691406 116.398438 " clip-rule="nonzero"/></clipPath><clipPath id="f555ffaf42"><path d="M 0.617188 0.796875 L 15.957031 0.796875 L 15.957031 8.46875 L 0.617188 8.46875 Z M 0.617188 0.796875 " clip-rule="nonzero"/></clipPath><clipPath id="22e82daa24"><path d="M 15.722656 4.429688 L 13.664062 11.953125 L 0.675781 8.394531 L 2.734375 0.871094 Z M 15.722656 4.429688 " clip-rule="nonzero"/></clipPath><clipPath id="1f3b75f388"><path d="M 0.691406 8.398438 L 2.75 0.875 L 15.722656 4.429688 Z M 0.691406 8.398438 " clip-rule="nonzero"/></clipPath><clipPath id="d01886b2de"><rect x="0" width="16" y="0" height="9"/></clipPath><clipPath id="e728f5c0bb"><path d="M 178 99 L 194 99 L 194 113 L 178 113 Z M 178 99 " clip-rule="nonzero"/></clipPath><clipPath id="d19aacb1b2"><path d="M 178.332031 109.320312 L 180.925781 99.953125 L 193.183594 103.347656 L 190.589844 112.714844 Z M 178.332031 109.320312 " clip-rule="nonzero"/></clipPath><clipPath id="cc615c4641"><path d="M 0.296875 0.933594 L 15.394531 0.933594 L 15.394531 13.871094 L 0.296875 13.871094 Z M 0.296875 0.933594 " clip-rule="nonzero"/></clipPath><clipPath id="98e8a4ea9f"><path d="M 0.332031 10.320312 L 2.925781 0.953125 L 15.183594 4.347656 L 12.589844 13.714844 Z M 0.332031 10.320312 " clip-rule="nonzero"/></clipPath><clipPath id="6f48dbb147"><rect x="0" width="16" y="0" height="14"/></clipPath><clipPath id="7911f2a034"><path d="M 207 98 L 223 98 L 223 117 L 207 117 Z M 207 98 " clip-rule="nonzero"/></clipPath><clipPath id="bca8699c8a"><path d="M 205.230469 112.960938 L 209.878906 95.667969 L 223.011719 99.199219 L 218.367188 116.492188 Z M 205.230469 112.960938 " clip-rule="nonzero"/></clipPath><clipPath id="b6a297bd6e"><path d="M 223 99.246094 C 215.847656 97.324219 208.808594 99.640625 207.546875 104.339844 C 206.285156 109.035156 211.210938 114.570312 218.367188 116.492188 Z M 223 99.246094 " clip-rule="nonzero"/></clipPath><clipPath id="19e7723ef4"><path d="M 0 0 L 16 0 L 16 18.707031 L 0 18.707031 Z M 0 0 " clip-rule="nonzero"/></clipPath><clipPath id="166ada9119"><path d="M -1.769531 14.960938 L 2.878906 -2.332031 L 16.011719 1.199219 L 11.367188 18.492188 Z M -1.769531 14.960938 " clip-rule="nonzero"/></clipPath><clipPath id="3c4ad6365c"><path d="M 16 1.246094 C 8.847656 -0.675781 1.808594 1.640625 0.546875 6.339844 C -0.714844 11.035156 4.210938 16.570312 11.367188 18.492188 Z M 16 1.246094 " clip-rule="nonzero"/></clipPath><clipPath id="50976a3ea3"><rect x="0" width="16" y="0" height="19"/></clipPath><clipPath id="eb84ac2cb5"><path d="M 203 112 L 219 112 L 219 121 L 203 121 Z M 203 112 " clip-rule="nonzero"/></clipPath><clipPath id="804c2a8941"><path d="M 218.617188 116.203125 L 216.558594 123.726562 L 203.570312 120.167969 L 205.628906 112.644531 Z M 218.617188 116.203125 " clip-rule="nonzero"/></clipPath><clipPath id="a89e13e808"><path d="M 203.585938 120.171875 L 205.644531 112.652344 L 218.617188 116.203125 Z M 203.585938 120.171875 " clip-rule="nonzero"/></clipPath><clipPath id="fbc28adf32"><path d="M 0.457031 0.632812 L 15.796875 0.632812 L 15.796875 8.300781 L 0.457031 8.300781 Z M 0.457031 0.632812 " clip-rule="nonzero"/></clipPath><clipPath id="5538079ec2"><path d="M 15.617188 4.203125 L 13.558594 11.726562 L 0.570312 8.167969 L 2.628906 0.644531 Z M 15.617188 4.203125 " clip-rule="nonzero"/></clipPath><clipPath id="ff31820d6e"><path d="M 0.585938 8.171875 L 2.644531 0.652344 L 15.617188 4.203125 Z M 0.585938 8.171875 " clip-rule="nonzero"/></clipPath><clipPath id="c4566dfd03"><rect x="0" width="16" y="0" height="9"/></clipPath><clipPath id="d770d7af8b"><path d="M 205 103 L 221 103 L 221 117 L 205 117 Z M 205 103 " clip-rule="nonzero"/></clipPath><clipPath id="d13d3c0995"><path d="M 205.226562 113.09375 L 207.820312 103.726562 L 220.078125 107.121094 L 217.484375 116.488281 Z M 205.226562 113.09375 " clip-rule="nonzero"/></clipPath><clipPath id="ab36b911fb"><path d="M 0.136719 0.527344 L 15.234375 0.527344 L 15.234375 13.707031 L 0.136719 13.707031 Z M 0.136719 0.527344 " clip-rule="nonzero"/></clipPath><clipPath id="3f0aaa4168"><path d="M 0.226562 10.09375 L 2.820312 0.726562 L 15.078125 4.121094 L 12.484375 13.488281 Z M 0.226562 10.09375 " clip-rule="nonzero"/></clipPath><clipPath id="41a69ac6ba"><rect x="0" width="16" y="0" height="14"/></clipPath><clipPath id="434740ca12"><path d="M 224 93 L 241 93 L 241 112 L 224 112 Z M 224 93 " clip-rule="nonzero"/></clipPath><clipPath id="875191c561"><path d="M 222.425781 108.371094 L 227.074219 91.078125 L 240.210938 94.609375 L 235.5625 111.902344 Z M 222.425781 108.371094 " clip-rule="nonzero"/></clipPath><clipPath id="ddc5d94785"><path d="M 240.199219 94.65625 C 233.042969 92.734375 226.007812 95.050781 224.746094 99.75 C 223.480469 104.445312 228.410156 109.980469 235.5625 111.902344 Z M 240.199219 94.65625 " clip-rule="nonzero"/></clipPath><clipPath id="b3d9c660c5"><path d="M 0 0 L 16.363281 0 L 16.363281 18.914062 L 0 18.914062 Z M 0 0 " clip-rule="nonzero"/></clipPath><clipPath id="4937b80ba5"><path d="M -1.574219 15.371094 L 3.074219 -1.921875 L 16.210938 1.609375 L 11.5625 18.902344 Z M -1.574219 15.371094 " clip-rule="nonzero"/></clipPath><clipPath id="b24685841b"><path d="M 16.199219 1.65625 C 9.042969 -0.265625 2.007812 2.050781 0.746094 6.75 C -0.519531 11.445312 4.410156 16.980469 11.5625 18.902344 Z M 16.199219 1.65625 " clip-rule="nonzero"/></clipPath><clipPath id="7f52697ea0"><rect x="0" width="17" y="0" height="19"/></clipPath><clipPath id="3fc94c15a6"><path d="M 220 108 L 236 108 L 236 116 L 220 116 Z M 220 108 " clip-rule="nonzero"/></clipPath><clipPath id="a3604554ef"><path d="M 235.816406 111.613281 L 233.753906 119.136719 L 220.765625 115.578125 L 222.824219 108.054688 Z M 235.816406 111.613281 " clip-rule="nonzero"/></clipPath><clipPath id="4bb35d27af"><path d="M 220.78125 115.582031 L 222.84375 108.058594 L 235.816406 111.613281 Z M 220.78125 115.582031 " clip-rule="nonzero"/></clipPath><clipPath id="9a75209ea4"><path d="M 0.714844 0 L 16 0 L 16 7.75 L 0.714844 7.75 Z M 0.714844 0 " clip-rule="nonzero"/></clipPath><clipPath id="88e89c0a52"><path d="M 15.816406 3.613281 L 13.753906 11.136719 L 0.765625 7.578125 L 2.824219 0.0546875 Z M 15.816406 3.613281 " clip-rule="nonzero"/></clipPath><clipPath id="e1b43bf5cc"><path d="M 0.78125 7.582031 L 2.84375 0.0585938 L 15.816406 3.613281 Z M 0.78125 7.582031 " clip-rule="nonzero"/></clipPath><clipPath id="021b57b7dd"><rect x="0" width="16" y="0" height="8"/></clipPath><clipPath id="4057c31a9a"><path d="M 222 99 L 238 99 L 238 112 L 222 112 Z M 222 99 " clip-rule="nonzero"/></clipPath><clipPath id="e2671789a4"><path d="M 222.421875 108.503906 L 225.015625 99.136719 L 237.277344 102.53125 L 234.679688 111.898438 Z M 222.421875 108.503906 " clip-rule="nonzero"/></clipPath><clipPath id="57e12ff5e5"><path d="M 0.390625 0 L 15.488281 0 L 15.488281 12.914062 L 0.390625 12.914062 Z M 0.390625 0 " clip-rule="nonzero"/></clipPath><clipPath id="28f3453b82"><path d="M 0.421875 9.503906 L 3.015625 0.136719 L 15.277344 3.53125 L 12.679688 12.898438 Z M 0.421875 9.503906 " clip-rule="nonzero"/></clipPath><clipPath id="d833c45f19"><rect x="0" width="16" y="0" height="13"/></clipPath><clipPath id="24a87ce2a3"><path d="M 193 125 L 208 125 L 208 145 L 193 145 Z M 193 125 " clip-rule="nonzero"/></clipPath><clipPath id="e691cf1930"><path d="M 192.902344 143.179688 L 194.152344 124.710938 L 207.035156 125.578125 L 205.785156 144.046875 Z M 192.902344 143.179688 " clip-rule="nonzero"/></clipPath><clipPath id="3dd7a4abc8"><path d="M 207.03125 125.605469 C 200.015625 125.132812 193.867188 128.933594 193.527344 133.957031 C 193.1875 138.980469 198.769531 143.574219 205.785156 144.046875 Z M 207.03125 125.605469 " clip-rule="nonzero"/></clipPath><clipPath id="1d5d019e27"><path d="M 0.152344 0.09375 L 14.054688 0.09375 L 14.054688 19.265625 L 0.152344 19.265625 Z M 0.152344 0.09375 " clip-rule="nonzero"/></clipPath><clipPath id="6a346078db"><path d="M -0.0976562 18.179688 L 1.152344 -0.289062 L 14.035156 0.578125 L 12.785156 19.046875 Z M -0.0976562 18.179688 " clip-rule="nonzero"/></clipPath><clipPath id="1522937223"><path d="M 14.03125 0.605469 C 7.015625 0.132812 0.867188 3.933594 0.527344 8.957031 C 0.1875 13.980469 5.769531 18.574219 12.785156 19.046875 Z M 14.03125 0.605469 " clip-rule="nonzero"/></clipPath><clipPath id="e978cdbeeb"><rect x="0" width="15" y="0" height="20"/></clipPath><clipPath id="d8538fe5d7"><path d="M 237 110 L 280 110 L 280 122 L 237 122 Z M 237 110 " clip-rule="nonzero"/></clipPath><clipPath id="ccf2c5751e"><path d="M 237.484375 118.980469 L 238.054688 108.6875 L 279.601562 110.984375 L 279.03125 121.28125 Z M 237.484375 118.980469 " clip-rule="nonzero"/></clipPath><clipPath id="4daeb2e2e0"><path d="M 279.59375 110.984375 L 279.023438 121.28125 L 237.484375 118.980469 Z M 279.59375 110.984375 " clip-rule="nonzero"/></clipPath><clipPath id="545ca39af6"><path d="M 0.25 0.957031 L 42.664062 0.957031 L 42.664062 11.5 L 0.25 11.5 Z M 0.25 0.957031 " clip-rule="nonzero"/></clipPath><clipPath id="5e037a8b54"><path d="M 0.484375 8.980469 L 1.054688 -1.3125 L 42.601562 0.984375 L 42.03125 11.28125 Z M 0.484375 8.980469 " clip-rule="nonzero"/></clipPath><clipPath id="428cf788c7"><path d="M 42.59375 0.984375 L 42.023438 11.28125 L 0.484375 8.980469 Z M 42.59375 0.984375 " clip-rule="nonzero"/></clipPath><clipPath id="f58de53a90"><rect x="0" width="43" y="0" height="12"/></clipPath><clipPath id="2d62c9a57a"><path d="M 190 185 L 218 185 L 218 193 L 190 193 Z M 190 185 " clip-rule="nonzero"/></clipPath><clipPath id="50baf2f3c9"><path d="M 217.675781 185.996094 L 217.414062 193.382812 L 190.789062 192.445312 L 191.046875 185.0625 Z M 217.675781 185.996094 " clip-rule="nonzero"/></clipPath><clipPath id="01adea0dd8"><path d="M 190.808594 192.445312 L 191.066406 185.0625 L 217.675781 185.996094 Z M 190.808594 192.445312 " clip-rule="nonzero"/></clipPath><clipPath id="b5aa54ffd0"><path d="M 0.757812 0.0078125 L 27.835938 0.0078125 L 27.835938 7.675781 L 0.757812 7.675781 Z M 0.757812 0.0078125 " clip-rule="nonzero"/></clipPath><clipPath id="fee63a6583"><path d="M 27.675781 0.996094 L 27.414062 8.382812 L 0.789062 7.445312 L 1.046875 0.0625 Z M 27.675781 0.996094 " clip-rule="nonzero"/></clipPath><clipPath id="b8e1cad77d"><path d="M 0.808594 7.445312 L 1.066406 0.0625 L 27.675781 0.996094 Z M 0.808594 7.445312 " clip-rule="nonzero"/></clipPath><clipPath id="8a8ace7c7e"><rect x="0" width="28" y="0" height="8"/></clipPath><clipPath id="3ca1e00e3e"><path d="M 221 254 L 236 254 L 236 258 L 221 258 Z M 221 254 " clip-rule="nonzero"/></clipPath><clipPath id="25044f7801"><path d="M 235.304688 254.519531 L 235.171875 258.324219 L 221.851562 257.855469 L 221.988281 254.050781 Z M 235.304688 254.519531 " clip-rule="nonzero"/></clipPath><clipPath id="92a28b47bb"><path d="M 221.851562 257.855469 L 221.988281 254.050781 L 235.304688 254.519531 Z M 221.851562 257.855469 " clip-rule="nonzero"/></clipPath><clipPath id="7752edf8e5"><path d="M 0.671875 0.0234375 L 14.332031 0.0234375 L 14.332031 3.859375 L 0.671875 3.859375 Z M 0.671875 0.0234375 " clip-rule="nonzero"/></clipPath><clipPath id="f1242f0bc0"><path d="M 14.304688 0.519531 L 14.171875 4.324219 L 0.851562 3.855469 L 0.988281 0.0507812 Z M 14.304688 0.519531 " clip-rule="nonzero"/></clipPath><clipPath id="1a061f72ac"><path d="M 0.851562 3.855469 L 0.988281 0.0507812 L 14.304688 0.519531 Z M 0.851562 3.855469 " clip-rule="nonzero"/></clipPath><clipPath id="ffbcbf8afc"><rect x="0" width="15" y="0" height="4"/></clipPath><clipPath id="6a04416a1c"><path d="M 7 251 L 27 251 L 27 268 L 7 268 Z M 7 251 " clip-rule="nonzero"/></clipPath><clipPath id="c59097c5c9"><path d="M 4.179688 254.726562 L 23.066406 249.484375 L 26.683594 262.515625 L 7.796875 267.757812 Z M 4.179688 254.726562 " clip-rule="nonzero"/></clipPath><clipPath id="bb91d99fdf"><path d="M 26.664062 262.523438 C 24.695312 255.421875 18.753906 250.683594 13.613281 252.109375 C 8.476562 253.535156 5.828125 260.660156 7.796875 267.757812 Z M 26.664062 262.523438 " clip-rule="nonzero"/></clipPath><clipPath id="0d2fdb8292"><path d="M 0 0 L 19.839844 0 L 19.839844 16.921875 L 0 16.921875 Z M 0 0 " clip-rule="nonzero"/></clipPath><clipPath id="915f8aa61e"><path d="M -2.820312 3.726562 L 16.066406 -1.515625 L 19.683594 11.515625 L 0.796875 16.757812 Z M -2.820312 3.726562 " clip-rule="nonzero"/></clipPath><clipPath id="c270805a26"><path d="M 19.664062 11.523438 C 17.695312 4.421875 11.753906 -0.316406 6.613281 1.109375 C 1.476562 2.535156 -1.171875 9.660156 0.796875 16.757812 Z M 19.664062 11.523438 " clip-rule="nonzero"/></clipPath><clipPath id="6a060fa7c4"><rect x="0" width="20" y="0" height="17"/></clipPath><clipPath id="3e54be81f4"><path d="M 299 176 L 307 176 L 307 191 L 299 191 Z M 299 176 " clip-rule="nonzero"/></clipPath><clipPath id="e6530b6811"><path d="M 306.160156 176.878906 L 309.265625 189.105469 L 302.996094 190.699219 L 299.886719 178.472656 Z M 306.160156 176.878906 " clip-rule="nonzero"/></clipPath><clipPath id="2cd91d50a9"><path d="M 302.992188 190.695312 L 299.886719 178.472656 L 306.160156 176.878906 Z M 302.992188 190.695312 " clip-rule="nonzero"/></clipPath><clipPath id="bb111445b2"><path d="M 0.796875 0.859375 L 7.265625 0.859375 L 7.265625 14.757812 L 0.796875 14.757812 Z M 0.796875 0.859375 " clip-rule="nonzero"/></clipPath><clipPath id="1953cd0d0d"><path d="M 7.160156 0.878906 L 10.265625 13.105469 L 3.996094 14.699219 L 0.886719 2.472656 Z M 7.160156 0.878906 " clip-rule="nonzero"/></clipPath><clipPath id="1d3f0d4ad2"><path d="M 3.992188 14.695312 L 0.886719 2.472656 L 7.160156 0.878906 Z M 3.992188 14.695312 " clip-rule="nonzero"/></clipPath><clipPath id="bcc5636722"><rect x="0" width="8" y="0" height="15"/></clipPath></defs><g clip-path="url(#535251741c)"><g clip-path="url(#07e8483e6e)"><g transform="matrix(1, 0, 0, 1, 40, 127)"><g clip-path="url(#098e653815)"><g clip-path="url(#08fe4ed604)"><g clip-path="url(#b9ecaed144)"><path fill="#004aad" d="M 0.984375 15.824219 L 55.320312 0.386719 L 58.785156 12.585938 L 4.453125 28.027344 Z M 0.984375 15.824219 " fill-opacity="1" fill-rule="nonzero"/></g></g></g></g></g></g><g clip-path="url(#d8cddc4f3b)"><g clip-path="url(#f0b0f6b4a2)"><g clip-path="url(#e7108b699c)"><g transform="matrix(1, 0, 0, 1, 254, 89)"><g clip-path="url(#7dd50636e2)"><g clip-path="url(#5aa3982ee2)"><g clip-path="url(#7c73787403)"><g clip-path="url(#dd59b14015)"><path fill="#004aad" d="M -2.964844 9.191406 L 5.355469 -3.867188 L 16.246094 3.066406 L 7.925781 16.128906 Z M -2.964844 9.191406 " fill-opacity="1" fill-rule="nonzero"/></g></g></g></g></g></g></g></g><g clip-path="url(#0c1d283945)"><g clip-path="url(#1c05d29508)"><g transform="matrix(1, 0, 0, 1, 29, 127)"><g clip-path="url(#451a53e13c)"><g clip-path="url(#89b92fcd95)"><g clip-path="url(#716a5e0d95)"><path fill="#004aad" d="M 0.820312 121.628906 L 65.433594 0.304688 L 77.320312 6.636719 L 12.707031 127.960938 Z M 0.820312 121.628906 " fill-opacity="1" fill-rule="nonzero"/></g></g></g></g></g></g><g clip-path="url(#15f80f0f61)"><g clip-path="url(#9b0242b62e)"><g transform="matrix(1, 0, 0, 1, 70, 170)"><g clip-path="url(#974b7396f6)"><g clip-path="url(#15e4697fe0)"><g clip-path="url(#06c1d22094)"><path fill="#004aad" d="M 20.949219 73.796875 L 0.988281 4.164062 L 13.933594 0.453125 L 33.898438 70.085938 Z M 20.949219 73.796875 " fill-opacity="1" fill-rule="nonzero"/></g></g></g></g></g></g><g clip-path="url(#600d2f0b1e)"><g clip-path="url(#0353420538)"><g transform="matrix(1, 0, 0, 1, 120, 118)"><g clip-path="url(#dc70e77632)"><g clip-path="url(#8a6dfa4830)"><g clip-path="url(#0667e7bb52)"><path fill="#004aad" d="M 0.5625 15.863281 L 54.222656 0.316406 L 57.972656 13.253906 L 4.3125 28.800781 Z M 0.5625 15.863281 " fill-opacity="1" fill-rule="nonzero"/></g></g></g></g></g></g><g clip-path="url(#e9be1d7398)"><g clip-path="url(#c0e4258e81)"><g transform="matrix(1, 0, 0, 1, 117, 123)"><g clip-path="url(#3319df3435)"><g clip-path="url(#d39b6e5f9e)"><g clip-path="url(#bc78f2fbfc)"><path fill="#004aad" d="M 0.347656 104.21875 L 49.5625 0.699219 L 61.917969 6.574219 L 12.703125 110.09375 Z M 0.347656 104.21875 " fill-opacity="1" fill-rule="nonzero"/></g></g></g></g></g></g><g clip-path="url(#b1ee5d8817)"><g clip-path="url(#d032f29d15)"><g transform="matrix(1, 0, 0, 1, 104, 121)"><g clip-path="url(#c47914c533)"><g clip-path="url(#c7a11e4322)"><g clip-path="url(#586edd13e1)"><path fill="#004aad" d="M 0.441406 46.292969 L 18.871094 0.292969 L 31.371094 5.300781 L 12.941406 51.300781 Z M 0.441406 46.292969 " fill-opacity="1" fill-rule="nonzero"/></g></g></g></g></g></g><g clip-path="url(#e3da0aa31d)"><g clip-path="url(#ba12c34187)"><g transform="matrix(1, 0, 0, 1, 237, 91)"><g clip-path="url(#fa68b052df)"><g clip-path="url(#24a39eb5ea)"><g clip-path="url(#27f2749d6c)"><path fill="#004aad" d="M 0.488281 28.144531 L 18.308594 0.140625 L 29.671875 7.371094 L 11.851562 35.375 Z M 0.488281 28.144531 " fill-opacity="1" fill-rule="nonzero"/></g></g></g></g></g></g><g clip-path="url(#f1ea37f8a5)"><g clip-path="url(#c5310f735f)"><g transform="matrix(1, 0, 0, 1, 202, 112)"><g clip-path="url(#4b3db30f2c)"><g clip-path="url(#13313d3e9f)"><g clip-path="url(#6969a464e7)"><path fill="#004aad" d="M 0.0976562 14.609375 L 71.859375 0.0390625 L 74.539062 13.238281 L 2.777344 27.808594 Z M 0.0976562 14.609375 " fill-opacity="1" fill-rule="nonzero"/></g></g></g></g></g></g><g clip-path="url(#ce9b1542f8)"><g clip-path="url(#0a28f8036a)"><g transform="matrix(1, 0, 0, 1, 190, 134)"><g clip-path="url(#273a87dda1)"><g clip-path="url(#4391ee7d4c)"><g clip-path="url(#07d7518b2d)"><path fill="#004aad" d="M 0.816406 53.070312 L 3.589844 0.378906 L 17.039062 1.085938 L 14.265625 53.777344 Z M 0.816406 53.070312 " fill-opacity="1" fill-rule="nonzero"/></g></g></g></g></g></g><g clip-path="url(#b1900a9a93)"><g clip-path="url(#a134e3c449)"><g transform="matrix(1, 0, 0, 1, 263, 115)"><g clip-path="url(#4d1bf8bcee)"><g clip-path="url(#89a1f85e1e)"><g clip-path="url(#b02c0a537f)"><path fill="#004aad" d="M 0.0390625 57.714844 L 3.039062 0.769531 L 16.488281 1.476562 L 13.488281 58.425781 Z M 0.0390625 57.714844 " fill-opacity="1" fill-rule="nonzero"/></g></g></g></g></g></g><g clip-path="url(#5ec8827766)"><g clip-path="url(#144e212ecd)"><g transform="matrix(1, 0, 0, 1, 199, 136)"><g clip-path="url(#e705adc006)"><g clip-path="url(#ef2eb9ba79)"><g clip-path="url(#a031723605)"><path fill="#004aad" d="M 0.121094 15.613281 L 73.328125 0.75 L 76.003906 13.949219 L 2.800781 28.8125 Z M 0.121094 15.613281 " fill-opacity="1" fill-rule="nonzero"/></g></g></g></g></g></g><g clip-path="url(#69ad12c9bc)"><g clip-path="url(#fa35185ece)"><g transform="matrix(1, 0, 0, 1, 199, 160)"><g clip-path="url(#f7d4d44280)"><g clip-path="url(#b88703a23b)"><g clip-path="url(#202a0067fd)"><path fill="#004aad" d="M 0.121094 16.023438 L 74.871094 0.84375 L 77.550781 14.042969 L 2.800781 29.21875 Z M 0.121094 16.023438 " fill-opacity="1" fill-rule="nonzero"/></g></g></g></g></g></g><g clip-path="url(#ad6243f973)"><g clip-path="url(#332a4330c9)"><g transform="matrix(1, 0, 0, 1, 12, 178)"><g clip-path="url(#c0913fa56b)"><g clip-path="url(#7d1cec628f)"><g clip-path="url(#46a2ae38b5)"><path fill="#004aad" d="M 0.5 74.25 L 287.972656 0.414062 L 291.320312 13.457031 L 3.851562 87.292969 Z M 0.5 74.25 " fill-opacity="1" fill-rule="nonzero"/></g></g></g></g></g></g><g clip-path="url(#dbb4b4a770)"><g clip-path="url(#4accb0bed4)"><g transform="matrix(1, 0, 0, 1, 221, 127)"><g clip-path="url(#9499fafe54)"><g clip-path="url(#2dc5d67caa)"><g clip-path="url(#531f59d787)"><path fill="#004aad" d="M 0.859375 127.25 L 7.542969 0.382812 L 20.988281 1.089844 L 14.308594 127.957031 Z M 0.859375 127.25 " fill-opacity="1" fill-rule="nonzero"/></g></g></g></g></g></g><g clip-path="url(#18c5638bf4)"><g clip-path="url(#71f1b96166)"><g clip-path="url(#241f5dc301)"><g transform="matrix(1, 0, 0, 1, 34, 142)"><g clip-path="url(#942f91aa0d)"><g clip-path="url(#cf93369162)"><g clip-path="url(#ec5cb90f8c)"><g clip-path="url(#0682978d50)"><path fill="#004aad" d="M -2.679688 3.425781 L 16.167969 -1.808594 L 19.621094 10.628906 L 0.769531 15.859375 Z M -2.679688 3.425781 " fill-opacity="1" fill-rule="nonzero"/></g></g></g></g></g></g></g></g><g clip-path="url(#8cc3977806)"><g clip-path="url(#7d5be4526a)"><g clip-path="url(#79cfb5637a)"><g transform="matrix(1, 0, 0, 1, 76, 122)"><g clip-path="url(#44a5dfc8fe)"><g clip-path="url(#9c333be808)"><g clip-path="url(#877e03c071)"><g clip-path="url(#c80107df1e)"><path fill="#004aad" d="M 0.464844 10.691406 L 13.203125 -12.75 L 36.734375 0.0351562 L 24 23.476562 Z M 0.464844 10.691406 " fill-opacity="1" fill-rule="nonzero"/></g></g></g></g></g></g></g></g><g clip-path="url(#82cf64db74)"><g clip-path="url(#9d03b69762)"><g clip-path="url(#2ac7b5652a)"><g transform="matrix(1, 0, 0, 1, 100, 166)"><g clip-path="url(#dfc55b8588)"><g clip-path="url(#feee4a40ba)"><g clip-path="url(#34bbe4e209)"><g clip-path="url(#3a8eec4618)"><path fill="#004aad" d="M 17.347656 5.933594 L 12.582031 17.5625 L 0.0898438 12.445312 L 4.855469 0.816406 Z M 17.347656 5.933594 " fill-opacity="1" fill-rule="nonzero"/></g></g></g></g></g></g></g></g><g clip-path="url(#b4af0fd0c0)"><g clip-path="url(#e00a0773c9)"><g clip-path="url(#57ad4e583c)"><g transform="matrix(1, 0, 0, 1, 122, 115)"><g clip-path="url(#ad68104eb4)"><g clip-path="url(#7a5ac24e8d)"><g clip-path="url(#f4dd352d5e)"><g clip-path="url(#76164638f2)"><path fill="#004aad" d="M -2.488281 15.242188 L 4.695312 -2.945312 L 17.773438 2.222656 L 10.589844 20.410156 Z M -2.488281 15.242188 " fill-opacity="1" fill-rule="nonzero"/></g></g></g></g></g></g></g></g><g clip-path="url(#9c633a65c8)"><g clip-path="url(#2f09c5b2cc)"><g clip-path="url(#0ea00cbed3)"><g transform="matrix(1, 0, 0, 1, 150, 114)"><g clip-path="url(#42ee9c5acd)"><g clip-path="url(#b80792b91f)"><g clip-path="url(#4ac02d9279)"><g clip-path="url(#b919a7d6d4)"><path fill="#004aad" d="M 0.660156 11.234375 L 11.335938 -11.242188 L 36.441406 0.683594 L 25.769531 23.15625 Z M 0.660156 11.234375 " fill-opacity="1" fill-rule="nonzero"/></g></g></g></g></g></g></g></g><g clip-path="url(#a4e2a5ddb5)"><g clip-path="url(#ff886e7615)"><g clip-path="url(#154a21ea18)"><g transform="matrix(1, 0, 0, 1, 163, 99)"><g clip-path="url(#540210d95e)"><g clip-path="url(#18333271a0)"><g clip-path="url(#e168148006)"><g clip-path="url(#3ee94a78f6)"><path fill="#004aad" d="M -1.859375 14.777344 L 2.773438 -2.460938 L 15.90625 1.066406 L 11.273438 18.308594 Z M -1.859375 14.777344 " fill-opacity="1" fill-rule="nonzero"/></g></g></g></g></g></g></g></g><g clip-path="url(#7e44fea725)"><g clip-path="url(#4b4a7569b4)"><g clip-path="url(#83ca5e8667)"><g transform="matrix(1, 0, 0, 1, 159, 113)"><g clip-path="url(#d797bfda1c)"><g clip-path="url(#e06aefc48c)"><g clip-path="url(#70206fa72e)"><g clip-path="url(#f81f0a9555)"><path fill="#004aad" d="M 15.527344 4.019531 L 13.464844 11.542969 L 0.507812 7.992188 L 2.566406 0.46875 Z M 15.527344 4.019531 " fill-opacity="1" fill-rule="nonzero"/></g></g></g></g></g></g></g></g><g clip-path="url(#cdc7c1dc35)"><g clip-path="url(#998ebef2c8)"><g transform="matrix(1, 0, 0, 1, 161, 104)"><g clip-path="url(#e17318f144)"><g clip-path="url(#7053c68aed)"><g clip-path="url(#34ab34276d)"><path fill="#004aad" d="M 0.132812 9.910156 L 2.730469 0.542969 L 14.988281 3.9375 L 12.394531 13.304688 Z M 0.132812 9.910156 " fill-opacity="1" fill-rule="nonzero"/></g></g></g></g></g></g><g clip-path="url(#66252fc02e)"><g clip-path="url(#604ca8f525)"><g clip-path="url(#34ed141d61)"><g transform="matrix(1, 0, 0, 1, 180, 94)"><g clip-path="url(#7c23c1558d)"><g clip-path="url(#bef88a19d8)"><g clip-path="url(#e070d10d41)"><g clip-path="url(#f80e34485b)"><path fill="#004aad" d="M -1.664062 15.1875 L 2.96875 -2.050781 L 16.105469 1.476562 L 11.472656 18.71875 Z M -1.664062 15.1875 " fill-opacity="1" fill-rule="nonzero"/></g></g></g></g></g></g></g></g><g clip-path="url(#3478c73ea2)"><g clip-path="url(#ae1089820b)"><g clip-path="url(#a372d7106d)"><g transform="matrix(1, 0, 0, 1, 176, 108)"><g clip-path="url(#d01886b2de)"><g clip-path="url(#f555ffaf42)"><g clip-path="url(#22e82daa24)"><g clip-path="url(#1f3b75f388)"><path fill="#004aad" d="M 15.722656 4.429688 L 13.664062 11.953125 L 0.703125 8.402344 L 2.761719 0.878906 Z M 15.722656 4.429688 " fill-opacity="1" fill-rule="nonzero"/></g></g></g></g></g></g></g></g><g clip-path="url(#e728f5c0bb)"><g clip-path="url(#d19aacb1b2)"><g transform="matrix(1, 0, 0, 1, 178, 99)"><g clip-path="url(#6f48dbb147)"><g clip-path="url(#cc615c4641)"><g clip-path="url(#98e8a4ea9f)"><path fill="#004aad" d="M 0.332031 10.320312 L 2.925781 0.953125 L 15.183594 4.347656 L 12.589844 13.714844 Z M 0.332031 10.320312 " fill-opacity="1" fill-rule="nonzero"/></g></g></g></g></g></g><g clip-path="url(#7911f2a034)"><g clip-path="url(#bca8699c8a)"><g clip-path="url(#b6a297bd6e)"><g transform="matrix(1, 0, 0, 1, 207, 98)"><g clip-path="url(#50976a3ea3)"><g clip-path="url(#19e7723ef4)"><g clip-path="url(#166ada9119)"><g clip-path="url(#3c4ad6365c)"><path fill="#004aad" d="M -1.769531 14.960938 L 2.863281 -2.277344 L 16 1.25 L 11.367188 18.492188 Z M -1.769531 14.960938 " fill-opacity="1" fill-rule="nonzero"/></g></g></g></g></g></g></g></g><g clip-path="url(#eb84ac2cb5)"><g clip-path="url(#804c2a8941)"><g clip-path="url(#a89e13e808)"><g transform="matrix(1, 0, 0, 1, 203, 112)"><g clip-path="url(#c4566dfd03)"><g clip-path="url(#fbc28adf32)"><g clip-path="url(#5538079ec2)"><g clip-path="url(#ff31820d6e)"><path fill="#004aad" d="M 15.617188 4.203125 L 13.558594 11.726562 L 0.597656 8.175781 L 2.660156 0.652344 Z M 15.617188 4.203125 " fill-opacity="1" fill-rule="nonzero"/></g></g></g></g></g></g></g></g><g clip-path="url(#d770d7af8b)"><g clip-path="url(#d13d3c0995)"><g transform="matrix(1, 0, 0, 1, 205, 103)"><g clip-path="url(#41a69ac6ba)"><g clip-path="url(#ab36b911fb)"><g clip-path="url(#3f0aaa4168)"><path fill="#004aad" d="M 0.226562 10.09375 L 2.820312 0.726562 L 15.082031 4.121094 L 12.484375 13.492188 Z M 0.226562 10.09375 " fill-opacity="1" fill-rule="nonzero"/></g></g></g></g></g></g><g clip-path="url(#434740ca12)"><g clip-path="url(#875191c561)"><g clip-path="url(#ddc5d94785)"><g transform="matrix(1, 0, 0, 1, 224, 93)"><g clip-path="url(#7f52697ea0)"><g clip-path="url(#b3d9c660c5)"><g clip-path="url(#4937b80ba5)"><g clip-path="url(#b24685841b)"><path fill="#004aad" d="M -1.574219 15.371094 L 3.058594 -1.867188 L 16.195312 1.660156 L 11.5625 18.902344 Z M -1.574219 15.371094 " fill-opacity="1" fill-rule="nonzero"/></g></g></g></g></g></g></g></g><g clip-path="url(#3fc94c15a6)"><g clip-path="url(#a3604554ef)"><g clip-path="url(#4bb35d27af)"><g transform="matrix(1, 0, 0, 1, 220, 108)"><g clip-path="url(#021b57b7dd)"><g clip-path="url(#9a75209ea4)"><g clip-path="url(#88e89c0a52)"><g clip-path="url(#e1b43bf5cc)"><path fill="#004aad" d="M 15.816406 3.613281 L 13.753906 11.136719 L 0.796875 7.585938 L 2.855469 0.0625 Z M 15.816406 3.613281 " fill-opacity="1" fill-rule="nonzero"/></g></g></g></g></g></g></g></g><g clip-path="url(#4057c31a9a)"><g clip-path="url(#e2671789a4)"><g transform="matrix(1, 0, 0, 1, 222, 99)"><g clip-path="url(#d833c45f19)"><g clip-path="url(#57e12ff5e5)"><g clip-path="url(#28f3453b82)"><path fill="#004aad" d="M 0.421875 9.503906 L 3.015625 0.136719 L 15.277344 3.53125 L 12.683594 12.898438 Z M 0.421875 9.503906 " fill-opacity="1" fill-rule="nonzero"/></g></g></g></g></g></g><path stroke-linecap="butt" transform="matrix(0.401997, -0.631851, 0.631851, 0.401997, 261.195573, 105.167553)" fill="none" stroke-linejoin="miter" d="M 0.001695 0.499271 L 20.934056 0.498181 " stroke="#004aad" stroke-width="1" stroke-opacity="1" stroke-miterlimit="4"/><g clip-path="url(#24a87ce2a3)"><g clip-path="url(#e691cf1930)"><g clip-path="url(#3dd7a4abc8)"><g transform="matrix(1, 0, 0, 1, 193, 125)"><g clip-path="url(#e978cdbeeb)"><g clip-path="url(#1d5d019e27)"><g clip-path="url(#6a346078db)"><g clip-path="url(#1522937223)"><path fill="#004aad" d="M -0.0976562 18.179688 L 1.148438 -0.242188 L 14.03125 0.628906 L 12.785156 19.046875 Z M -0.0976562 18.179688 " fill-opacity="1" fill-rule="nonzero"/></g></g></g></g></g></g></g></g><g clip-path="url(#d8538fe5d7)"><g clip-path="url(#ccf2c5751e)"><g clip-path="url(#4daeb2e2e0)"><g transform="matrix(1, 0, 0, 1, 237, 110)"><g clip-path="url(#f58de53a90)"><g clip-path="url(#545ca39af6)"><g clip-path="url(#5e037a8b54)"><g clip-path="url(#428cf788c7)"><path fill="#004aad" d="M 0.484375 8.980469 L 1.054688 -1.3125 L 42.601562 0.984375 L 42.03125 11.28125 Z M 0.484375 8.980469 " fill-opacity="1" fill-rule="nonzero"/></g></g></g></g></g></g></g></g><g clip-path="url(#2d62c9a57a)"><g clip-path="url(#50baf2f3c9)"><g clip-path="url(#01adea0dd8)"><g transform="matrix(1, 0, 0, 1, 190, 185)"><g clip-path="url(#8a8ace7c7e)"><g clip-path="url(#b5aa54ffd0)"><g clip-path="url(#fee63a6583)"><g clip-path="url(#b8e1cad77d)"><path fill="#004aad" d="M 27.675781 0.996094 L 27.414062 8.382812 L 0.816406 7.445312 L 1.078125 0.0625 Z M 27.675781 0.996094 " fill-opacity="1" fill-rule="nonzero"/></g></g></g></g></g></g></g></g><g clip-path="url(#3ca1e00e3e)"><g clip-path="url(#25044f7801)"><g clip-path="url(#92a28b47bb)"><g transform="matrix(1, 0, 0, 1, 221, 254)"><g clip-path="url(#ffbcbf8afc)"><g clip-path="url(#7752edf8e5)"><g clip-path="url(#f1242f0bc0)"><g clip-path="url(#1a061f72ac)"><path fill="#004aad" d="M 14.304688 0.519531 L 14.171875 4.324219 L 0.851562 3.855469 L 0.988281 0.0507812 Z M 14.304688 0.519531 " fill-opacity="1" fill-rule="nonzero"/></g></g></g></g></g></g></g></g><g clip-path="url(#6a04416a1c)"><g clip-path="url(#c59097c5c9)"><g clip-path="url(#bb91d99fdf)"><g transform="matrix(1, 0, 0, 1, 7, 251)"><g clip-path="url(#6a060fa7c4)"><g clip-path="url(#0d2fdb8292)"><g clip-path="url(#915f8aa61e)"><g clip-path="url(#c270805a26)"><path fill="#004aad" d="M -2.820312 3.726562 L 16.066406 -1.515625 L 19.683594 11.515625 L 0.796875 16.757812 Z M -2.820312 3.726562 " fill-opacity="1" fill-rule="nonzero"/></g></g></g></g></g></g></g></g><g clip-path="url(#3e54be81f4)"><g clip-path="url(#e6530b6811)"><g clip-path="url(#2cd91d50a9)"><g transform="matrix(1, 0, 0, 1, 299, 176)"><g clip-path="url(#bcc5636722)"><g clip-path="url(#bb111445b2)"><g clip-path="url(#1953cd0d0d)"><g clip-path="url(#1d3f0d4ad2)"><path fill="#004aad" d="M 7.160156 0.878906 L 10.265625 13.105469 L 3.996094 14.699219 L 0.886719 2.472656 Z M 7.160156 0.878906 " fill-opacity="1" fill-rule="nonzero"/></g></g></g></g></g></g></g></g></svg>